PathFileType	4	(X/Y/Z)	OpenSim_Sub10_EMGBaseline_Magnet.trc
DataRate	CameraRate	NumFrames	NumMarkers	Units	OrigDataRate	OrigDataStartFrame	OrigNumFrames
100	100	30	8	m	100	3076	8201
Frame#	Time	torso_imu_offset_imu	pelvis_imu_offset_imu	tibia_r_imu_offset_imu	femur_r_imu_offset_imu	tibia_l_imu_offset_imu	femur_l_imu_offset_imu	toes_r_imu_offset_imu	toes_l_imu_offset_imu
				X1	Y1	Z1	X2	Y2	Z2	X3	Y3	Z3	X4	Y4	Z4	X5	Y5	Z5	X6	Y6	Z6	X7	Y7	Z7	X8		Y8	Z8	

3076	30.75000000	-0.94213900	-0.11206100	0.12622100	-0.66333000	0.11816400	-0.68627900	-0.64746100	-0.64526400	-0.10327100	-0.72583000	-0.37988300	0.05053700	-0.14209000	0.79760700	0.19580100	-0.80224600	0.07568400	0.28149400	-0.62915000	-0.31665000	-0.37158200	-0.82251000	-0.05737300	0.24731400
3077	30.76000000	-0.94433600	-0.10571300	0.12817400	-0.66088900	0.11181600	-0.68603500	-0.64721700	-0.64746100	-0.09863300	-0.71923800	-0.38818400	0.04858400	-0.16235400	0.79541000	0.18286100	-0.80419900	0.06494100	0.27734400	-0.63134800	-0.31860400	-0.37793000	-0.83398400	-0.05053700	0.19555700
3078	30.77000000	-0.94653300	-0.10595700	0.13476600	-0.66088900	0.11401400	-0.69775400	-0.64721700	-0.64941400	-0.10083000	-0.71069300	-0.39428700	0.05346700	-0.18920900	0.79321300	0.17651400	-0.80590800	0.04980500	0.27954100	-0.62695300	-0.32251000	-0.37768600	-0.83642600	-0.04370100	0.14599600
3079	30.78000000	-0.94458000	-0.10376000	0.13696300	-0.65625000	0.10156200	-0.68554700	-0.64502000	-0.65356400	-0.10083000	-0.70605500	-0.40454100	0.05175800	-0.21582000	0.78442400	0.17749000	-0.80102500	0.03662100	0.27539100	-0.62695300	-0.32470700	-0.37573200	-0.84350600	-0.03906200	0.09423800
3080	30.79000000	-0.94677700	-0.10156200	0.13891600	-0.66040000	0.09716800	-0.69702100	-0.64306600	-0.64941400	-0.10302700	-0.70385700	-0.41479500	0.04736300	-0.24902300	0.77343800	0.17602500	-0.80297900	0.02587900	0.27758800	-0.62915000	-0.32470700	-0.37988300	-0.84106400	-0.04101600	0.05395500
3081	30.80000000	-0.94043000	-0.09936500	0.13891600	-0.65380900	0.09301800	-0.69458000	-0.64086900	-0.65161100	-0.09643600	-0.69921900	-0.42309600	0.04785200	-0.27563500	0.76904300	0.17675800	-0.80468800	0.01489300	0.27783200	-0.63085900	-0.33081100	-0.38818400	-0.83642600	-0.04516600	0.00219700
3082	30.81000000	-0.94482400	-0.09326200	0.14306600	-0.65820300	0.09106400	-0.70385700	-0.63647500	-0.65991200	-0.10278300	-0.69506800	-0.42504900	0.04321300	-0.31543000	0.74902300	0.17382800	-0.80639600	0.00195300	0.27343800	-0.63061500	-0.33886700	-0.38793900	-0.83227500	-0.04028300	-0.03833000
3083	30.82000000	-0.94043000	-0.09521500	0.15210000	-0.65576200	0.08691400	-0.70141600	-0.64062500	-0.65991200	-0.10278300	-0.69067400	-0.43554700	0.04370100	-0.35522500	0.73364300	0.17041000	-0.80615200	-0.00683600	0.27124000	-0.62646500	-0.34082000	-0.38574200	-0.82739300	-0.05127000	-0.06958000
3084	30.83000000	-0.94262700	-0.09301800	0.14965800	-0.65332000	0.07641600	-0.70336900	-0.63647500	-0.65771500	-0.11181600	-0.68212900	-0.44165000	0.04638700	-0.39721700	0.71606400	0.16967800	-0.80151400	-0.01757800	0.27587900	-0.62622100	-0.34912100	-0.38769500	-0.81591800	-0.05517600	-0.13256800
3085	30.84000000	-0.94482400	-0.09106400	0.14965800	-0.65136700	0.07861300	-0.70800800	-0.63183600	-0.67041000	-0.11132800	-0.67993200	-0.44360400	0.05102500	-0.43212900	0.68505900	0.16503900	-0.80566400	-0.02197300	0.27587900	-0.62426800	-0.35107400	-0.39404300	-0.81127900	-0.06152300	-0.16406200
3086	30.85000000	-0.94262700	-0.09326200	0.15844700	-0.64697300	0.07421900	-0.70556600	-0.63427700	-0.65991200	-0.11181600	-0.67944300	-0.46020500	0.04931600	-0.46752900	0.66967800	0.15942400	-0.80127000	-0.02417000	0.27148400	-0.63012700	-0.35717800	-0.39379900	-0.79760700	-0.06567400	-0.20214800
3087	30.86000000	-0.94287100	-0.08886700	0.15844700	-0.64257800	0.07226600	-0.71240200	-0.63183600	-0.66821300	-0.11596700	-0.66259800	-0.46435500	0.04956100	-0.51342800	0.63232400	0.16186500	-0.80737300	-0.03710900	0.27612300	-0.62377900	-0.36328100	-0.39575200	-0.78857400	-0.06738300	-0.24267600
3088	30.87000000	-0.93872100	-0.08667000	0.15820300	-0.63818400	0.07031200	-0.71704100	-0.62939500	-0.67871100	-0.11547900	-0.66626000	-0.47876000	0.05004900	-0.54589800	0.59692400	0.16186500	-0.80517600	-0.03710900	0.28051800	-0.62768600	-0.37353500	-0.39770500	-0.78173800	-0.07592800	-0.27856400
3089	30.88000000	-0.94067400	-0.09106400	0.15625000	-0.64013700	0.06811500	-0.71460000	-0.62548800	-0.67456100	-0.12915000	-0.66210900	-0.47876000	0.05688500	-0.58960000	0.55957000	0.16430700	-0.80517600	-0.03491200	0.27612300	-0.62329100	-0.37963900	-0.39965800	-0.77002000	-0.08447300	-0.31884800
3090	30.89000000	-0.93872100	-0.08252000	0.15600600	-0.64233400	0.07226600	-0.71704100	-0.62109400	-0.67871100	-0.13110400	-0.65747100	-0.49121100	0.05517600	-0.62182600	0.51562500	0.16674800	-0.80297900	-0.03491200	0.28051800	-0.62548800	-0.38354500	-0.40185500	-0.76098600	-0.09082000	-0.35937500
3091	30.90000000	-0.93872100	-0.08252000	0.15380900	-0.63793900	0.06176800	-0.71215800	-0.62915000	-0.68481400	-0.12646500	-0.64917000	-0.49316400	0.05761700	-0.66088900	0.47583000	0.15576200	-0.80542000	-0.03076200	0.28735400	-0.62524400	-0.38964800	-0.40576200	-0.73803700	-0.10571300	-0.39526400
3092	30.91000000	-0.94506800	-0.08691400	0.16699200	-0.64013700	0.06396500	-0.71460000	-0.61035200	-0.68481400	-0.12866200	-0.64453100	-0.50341800	0.05566400	-0.67993200	0.43408200	0.14917000	-0.80346700	-0.02417000	0.27807600	-0.62695300	-0.39990200	-0.40356400	-0.72412100	-0.11645500	-0.43994100
3093	30.92000000	-0.94091800	-0.08471700	0.16040000	-0.64013700	0.06811500	-0.71460000	-0.60839800	-0.68286100	-0.13549800	-0.64233400	-0.50976600	0.05346700	-0.70776400	0.39672900	0.14917000	-0.80371100	-0.01098600	0.29150400	-0.62890600	-0.40405300	-0.40576200	-0.69189500	-0.13793900	-0.47583000
3094	30.93000000	-0.94091800	-0.08471700	0.16479500	-0.63378900	0.06616200	-0.71460000	-0.60376000	-0.69116200	-0.13745100	-0.63598600	-0.51586900	0.05615200	-0.72021500	0.36157200	0.15332000	-0.80639600	-0.00024400	0.27563500	-0.62890600	-0.40820300	-0.40551800	-0.66186500	-0.16406200	-0.50488300
3095	30.94000000	-0.94091800	-0.08471700	0.16479500	-0.64209000	0.06176800	-0.71435500	-0.59545900	-0.69311500	-0.13720700	-0.63574200	-0.52002000	0.05859400	-0.73266600	0.33081100	0.14599600	-0.80224600	0.00854500	0.27563500	-0.62866200	-0.41845700	-0.40551800	-0.63232400	-0.17675800	-0.52270500
3096	30.95000000	-0.94311500	-0.08252000	0.16699200	-0.64453100	0.06591800	-0.70996100	-0.58691400	-0.69946300	-0.13720700	-0.63159200	-0.52002000	0.05175800	-0.74096700	0.30664100	0.14965800	-0.80493200	0.01928700	0.26879900	-0.63061500	-0.42456100	-0.40747100	-0.60717800	-0.19409200	-0.53833000
3097	30.96000000	-0.94067400	-0.08667000	0.16040000	-0.64233400	0.06811500	-0.70532200	-0.58447300	-0.70776400	-0.13232400	-0.62304700	-0.52197300	0.05639600	-0.75805700	0.28027300	0.14648400	-0.80297900	0.03027300	0.26196300	-0.63012700	-0.43676800	-0.40918000	-0.59570300	-0.20068400	-0.55639600
3098	30.97000000	-0.93872100	-0.08471700	0.16479500	-0.64892600	0.07226600	-0.70776400	-0.57592800	-0.71411100	-0.14550800	-0.62719700	-0.52832000	0.05444300	-0.76416000	0.25610400	0.13671900	-0.81005900	0.04101600	0.25952100	-0.63012700	-0.44482400	-0.40698200	-0.58691400	-0.19604500	-0.56982400
3099	30.98000000	-0.93847700	-0.08886700	0.16064500	-0.64672900	0.07006800	-0.70532200	-0.56543000	-0.71411100	-0.14111300	-0.62695300	-0.53027300	0.04516600	-0.76806600	0.24292000	0.13964800	-0.81005900	0.04541000	0.25488300	-0.63403300	-0.45117200	-0.40087900	-0.57324200	-0.20019500	-0.57202100
3100	30.99000000	-0.94311500	-0.08252000	0.16918900	-0.64917000	0.07641600	-0.70556600	-0.56079100	-0.72436500	-0.14746100	-0.62500000	-0.53027300	0.05224600	-0.76342800	0.23413100	0.13769500	-0.80566400	0.04101600	0.25512700	-0.63598600	-0.45727500	-0.40063500	-0.56616200	-0.21118200	-0.57641600
3101	31	-0.94311500	-0.08056600	0.16235400	-0.65112300	0.07202100	-0.69140600	-0.55004900	-0.73266600	-0.14697300	-0.62060500	-0.53442400	0.04541000	-0.77221700	0.23193400	0.13793900	-0.80981400	0.03662100	0.26171900	-0.63574200	-0.46142600	-0.40258800	-0.56396500	-0.20678700	-0.57421900
3102	31.01000000	-0.94067400	-0.08886700	0.16284200	-0.65136700	0.08276400	-0.69897500	-0.54174800	-0.73486300	-0.14917000	-0.61621100	-0.54052700	0.04809600	-0.76342800	0.23632800	0.14209000	-0.80297900	0.02587900	0.26416000	-0.63574200	-0.46533200	-0.40063500	-0.57275400	-0.21582000	-0.55615200
3103	31.02000000	-0.93872100	-0.08471700	0.16040000	-0.65356400	0.08056600	-0.69189500	-0.52905300	-0.73901400	-0.16015600	-0.61645500	-0.53637700	0.04321300	-0.75927700	0.24951200	0.14819300	-0.80029300	0.01709000	0.27319300	-0.64599600	-0.47387700	-0.39624000	-0.59521500	-0.21167000	-0.55175800
3104	31.03000000	-0.94287100	-0.08886700	0.16284200	-0.65332000	0.07617200	-0.68701200	-0.51611300	-0.74731400	-0.16430700	-0.61645500	-0.53857400	0.03881800	-0.75952100	0.25805700	0.15893600	-0.80004900	0.00634800	0.27783200	-0.64379900	-0.47778300	-0.38989300	-0.60400400	-0.21411100	-0.52929700
3105	31.04000000	-0.94091800	-0.08471700	0.15820300	-0.65795900	0.08032200	-0.68481400	-0.50097700	-0.75976600	-0.17504900	-0.61621100	-0.54272500	0.03442400	-0.75097700	0.27148400	0.16259800	-0.79956100	-0.00659200	0.28686500	-0.64965800	-0.49023400	-0.38354500	-0.61547900	-0.20971700	-0.51806600
